<svg width="197" height="150" viewBox="0 0 197 150" fill="none" xmlns="http://www.w3.org/2000/svg">
<path d="M54.4707 143.124L132.933 6.72359C133.54 5.6682 132.778 4.35113 131.56 4.35113H7.85939C6.11857 4.35113 5.24568 6.45489 6.47515 7.68731L54.6948 56.0229C54.7861 56.1144 54.8373 56.2384 54.8373 56.3676C54.8373 56.4539 54.8145 56.5387 54.771 56.6132L7.07399 138.503L6.74172 139.065C5.15323 141.755 7.09202 145.151 10.2156 145.151H50.9657C52.4126 145.151 53.7493 144.378 54.4707 143.124Z" stroke="#fcfcfc" stroke-width="8.08704"/>
<path d="M191.486 56.7891C194.023 28.2555 171.319 6.47783 161.84 4.46072C160.634 4.20393 159.552 4.97477 158.938 6.04467L79.5874 144.238C79.3539 144.644 79.6475 145.151 80.1165 145.151H190.073C191.536 145.151 192.277 143.39 191.254 142.344L152.477 102.693C152.22 102.431 152.267 101.998 152.575 101.797C152.63 101.761 152.687 101.735 152.75 101.719C164.868 98.6596 188.761 87.4323 191.486 56.7891Z" stroke="#fcfcfc" stroke-width="8.08704"/>
</svg>
